<svg width="28" height="28" viewBox="0 0 28 28" fill="none" xmlns="http://www.w3.org/2000/svg">
<g id="Group 1">
<g id="Group">
<g id="Layer_5_78_">
<path id="Vector" d="M27.4032 25.7971C27.4032 25.7971 27.144 25.7971 27.0577 25.7971C26.8685 25.7971 26.8685 25.5368 26.8685 25.5368V7.32376C26.8685 6.86526 26.5458 6.49013 26.1517 6.49013C26.1517 6.49013 21.9924 6.49013 20.606 6.49013C20.4069 6.49013 20.4175 6.2706 20.4175 6.2706V2.75953C20.4175 2.7248 20.4343 2.6858 20.5334 2.6858C20.7524 2.6858 20.9317 2.47739 20.9317 2.22267V1.40006C20.9317 1.14534 20.7524 0.936935 20.5334 0.936935H7.65674C7.4377 0.936935 7.25849 1.14534 7.25849 1.40006V2.22267C7.25849 2.47739 7.4377 2.6858 7.65674 2.6858C7.77247 2.6858 7.77271 2.8064 7.77271 2.82039V6.18965C7.77271 6.18965 7.79238 6.49022 7.62312 6.49022C6.12579 6.49022 1.63402 6.49022 1.63402 6.49022C1.23975 6.49022 0.917168 6.86535 0.917168 7.32385C0.917168 7.32385 0.917168 21.027 0.917168 25.5947C0.917168 25.7684 0.836243 25.7972 0.672802 25.7972C0.461411 25.7972 0.398249 25.7972 0.398249 25.7972C0.179212 25.7972 0 26.0056 0 26.2603V27.2208C0 27.4755 0.179212 27.6839 0.398249 27.6839H27.4032C27.6222 27.6839 27.8014 27.4755 27.8014 27.2208V26.2603C27.8014 26.0055 27.6222 25.7971 27.4032 25.7971ZM15.6173 10.4837H18.0008C18.1761 10.4837 18.3194 10.6504 18.3194 10.8542V13.626C18.3194 13.8298 18.1761 13.9965 18.0008 13.9965H15.6173C15.442 13.9965 15.2987 13.8298 15.2987 13.626V10.8542C15.2987 10.6504 15.442 10.4837 15.6173 10.4837ZM15.2987 8.76437V5.99254C15.2987 5.78876 15.442 5.62204 15.6173 5.62204H18.0008C18.1761 5.62204 18.3194 5.78876 18.3194 5.99254V8.76437C18.3194 8.96814 18.1761 9.13487 18.0008 9.13487H15.6173C15.442 9.13487 15.2987 8.96814 15.2987 8.76437ZM15.6173 15.174H18.0008C18.1761 15.174 18.3194 15.3407 18.3194 15.5445V18.3163C18.3194 18.5201 18.1761 18.6868 18.0008 18.6868H15.6173C15.442 18.6868 15.2987 18.5201 15.2987 18.3163V15.5445C15.2987 15.3408 15.442 15.174 15.6173 15.174ZM15.9711 20.7465C16.1462 20.7465 16.2897 20.9132 16.2897 21.117V25.4088C16.2897 25.6126 16.1462 25.7793 15.9711 25.7793H12.2805C12.1053 25.7793 11.9619 25.6126 11.9619 25.4088V21.117C11.9619 20.9132 12.1053 20.7465 12.2805 20.7465H15.9711ZM12.8955 8.76437C12.8955 8.96814 12.7522 9.13487 12.5769 9.13487H10.1934C10.0182 9.13487 9.87482 8.96814 9.87482 8.76437V5.99254C9.87482 5.78876 10.0182 5.62204 10.1934 5.62204H12.5769C12.7522 5.62204 12.8955 5.78876 12.8955 5.99254V8.76437ZM10.1934 10.4837H12.5769C12.7522 10.4837 12.8955 10.6504 12.8955 10.8542V13.626C12.8955 13.8298 12.7522 13.9965 12.5769 13.9965H10.1934C10.0182 13.9965 9.87482 13.8298 9.87482 13.626V10.8542C9.87482 10.6504 10.0182 10.4837 10.1934 10.4837ZM10.1934 15.174H12.5769C12.7522 15.174 12.8955 15.3407 12.8955 15.5445V18.3163C12.8955 18.5201 12.7522 18.6868 12.5769 18.6868H10.1934C10.0182 18.6868 9.87482 18.5201 9.87482 18.3163V15.5445C9.87482 15.3408 10.0182 15.174 10.1934 15.174ZM21.3559 10.7685C21.3559 10.5647 21.4993 10.398 21.6745 10.398H24.0581C24.2332 10.398 24.3767 10.5647 24.3767 10.7685V13.5403C24.3767 13.7441 24.2332 13.9108 24.0581 13.9108H21.6745C21.4993 13.9108 21.3559 13.7441 21.3559 13.5403V10.7685ZM21.3559 15.6302C21.3559 15.4265 21.4993 15.2597 21.6745 15.2597H24.0581C24.2332 15.2597 24.3767 15.4265 24.3767 15.6302V18.4021C24.3767 18.6058 24.2332 18.7726 24.0581 18.7726H21.6745C21.4993 18.7726 21.3559 18.6058 21.3559 18.4021V15.6302ZM21.3559 20.3204C21.3559 20.1167 21.4993 19.9499 21.6745 19.9499H24.0581C24.2332 19.9499 24.3767 20.1167 24.3767 20.3204V23.0923C24.3767 23.296 24.2332 23.4628 24.0581 23.4628H21.6745C21.4993 23.4628 21.3559 23.296 21.3559 23.0923V20.3204ZM3.40901 10.7685C3.40901 10.5647 3.55238 10.398 3.72761 10.398H6.11113C6.28636 10.398 6.42973 10.5647 6.42973 10.7685V13.5403C6.42973 13.7441 6.28636 13.9108 6.11113 13.9108H3.72761C3.55238 13.9108 3.40901 13.7441 3.40901 13.5403V10.7685ZM3.40901 15.6302C3.40901 15.4265 3.55238 15.2597 3.72761 15.2597H6.11113C6.28636 15.2597 6.42973 15.4265 6.42973 15.6302V18.4021C6.42973 18.6058 6.28636 18.7726 6.11113 18.7726H3.72761C3.55238 18.7726 3.40901 18.6058 3.40901 18.4021V15.6302ZM3.40901 20.3204C3.40901 20.1167 3.55238 19.9499 3.72761 19.9499H6.11113C6.28636 19.9499 6.42973 20.1167 6.42973 20.3204V23.0923C6.42973 23.296 6.28636 23.4628 6.11113 23.4628H3.72761C3.55238 23.4628 3.40901 23.296 3.40901 23.0923V20.3204Z" fill="white"/>
</g>
</g>
</g>
</svg>
