<svg width="20" height="28" viewBox="0 0 20 28" fill="none" xmlns="http://www.w3.org/2000/svg">
<g id="Group 2">
<g id="Group">
<path id="Vector" d="M12.5412 5.47157C13.6554 5.55819 14.619 4.57806 14.6935 3.28234C14.768 1.98663 13.9251 0.865973 12.8109 0.779358C11.6967 0.692744 10.7331 1.67287 10.6586 2.96859C10.5841 4.2643 11.427 5.38491 12.5412 5.47157Z" fill="#0177A8"/>
<path id="Vector_2" d="M6.29413 15.4066C6.17598 15.3491 6.06772 15.2757 5.97038 15.1895L4.65812 18.4987L3.67554 17.9718C3.29312 17.7667 2.84018 17.9609 2.66386 18.4057L0.0702482 24.9461C-0.10607 25.3909 0.0609494 25.9175 0.443369 26.1226L0.777723 26.302C0.721705 26.3626 0.674537 26.4364 0.640487 26.5222C0.50051 26.8753 0.633119 27.2934 0.936656 27.4562C1.24024 27.619 1.59979 27.4648 1.73977 27.1118C1.77378 27.026 1.79143 26.9363 1.79471 26.8474L2.12906 27.0267C2.51148 27.2317 2.96443 27.0375 3.14075 26.5928L5.73436 20.0523C5.8923 19.6539 5.77416 19.1905 5.47309 18.9507L6.82632 15.5381C6.64838 15.5334 6.46825 15.4912 6.29413 15.4066Z" fill="#0177A8"/>
<path id="Vector_3" d="M18.6603 10.8675L15.92 10.0654L14.6824 8.40758L14.7074 7.97247C14.7577 7.09719 14.1884 6.34018 13.4357 6.28167L11.0054 6.09266C10.2803 6.0363 9.64981 6.64886 9.55956 7.4764L10.1148 7.2909L7.87212 8.6843C7.68475 8.80074 7.53763 8.98875 7.45569 9.21673L6.00889 13.2408C5.81236 13.7875 6.03409 14.4159 6.5042 14.6445C6.9713 14.8717 7.51342 14.6187 7.71125 14.0685L9.03133 10.3968L10.9843 9.1834L9.55148 10.5915L9.34475 11.1665L9.08393 15.703L9.09705 15.704C9.09826 15.7559 9.22894 18.7923 9.29264 20.2822L7.13576 25.6918C6.87854 26.3368 7.11972 27.1022 7.67442 27.4013C8.22902 27.7004 8.88722 27.4199 9.14444 26.7749L11.4163 21.0771C11.4918 20.8878 11.5266 20.6799 11.5176 20.4715L11.3207 15.8769L11.8198 15.9157L13.0447 20.152L13.5097 26.3453C13.5629 27.0543 14.1004 27.5779 14.7088 27.5159C15.318 27.4541 15.7686 26.8297 15.7154 26.1214L15.239 19.7752C15.2314 19.6736 15.2134 19.5735 15.1855 19.4768L14.2095 16.1016L14.2399 16.1039L14.5077 11.4467L14.7169 11.7269C14.8406 11.8927 15.0053 12.0104 15.1884 12.064L18.2101 12.9484C18.7031 13.0929 19.2054 12.7454 19.3299 12.1699C19.4542 11.5951 19.1545 11.0121 18.6603 10.8675Z" fill="#0177A8"/>
</g>
</g>
</svg>
